<?xml version="1.0" encoding="UTF-8"?>
<svg id="a" data-name="shapes" xmlns="http://www.w3.org/2000/svg" width="108" height="108" viewBox="0 0 108 108">
  <rect id="b" data-name="edge_box" width="108" height="108" fill="none"/>
  <circle id="c" data-name="scaling_circle" cx="54" cy="54" r="52" fill="none"/>
  <path id="d" data-name="android_clover" d="M15.7,54c0-10.53-5.07-10.53-5.07-21.05,0-12.18,10.14-22.32,22.32-22.32,10.53,0,10.53,5.07,21.05,5.07s10.53-5.07,21.05-5.07c12.18,0,22.32,10.14,22.32,22.32,0,10.53-5.07,10.53-5.07,21.05s5.07,10.53,5.07,21.05c0,12.18-10.14,22.32-22.32,22.32-10.53,0-10.53-5.07-21.05-5.07s-10.53,5.07-21.05,5.07c-12.18,0-22.32-10.14-22.32-22.32,0-10.53,5.07-10.53,5.07-21.05Z"/>
</svg>