<?xml version="1.0" encoding="UTF-8"?>
<svg id="a" data-name="shapes" xmlns="http://www.w3.org/2000/svg" width="108" height="108" viewBox="0 0 108 108">
  <rect id="b" data-name="edge_box" width="108" height="108" fill="none"/>
  <circle id="c" data-name="scaling_circle" cx="54" cy="54" r="52" fill="none"/>
  <path id="d" data-name="google_scallop" d="M54,2c-4.6,0-6.79,3.79-11.62,4.9-4.75,1.25-8.44-1.1-12.52,1.04-4.07,2.13-4.24,6.51-7.93,9.75-3.7,3.3-8.06,2.94-10.67,6.71-2.61,3.78-.73,7.73-2.53,12.32-1.7,4.63-5.73,6.34-6.28,10.9-.55,4.56,2.95,7.18,3.49,12.07.65,4.9-2.12,8.29-.49,12.59,1.63,4.29,5.95,4.99,8.71,9.13,2.85,3.97,1.97,8.26,5.41,11.3,3.44,3.05,7.59,1.65,11.88,4.01,4.46,2.23,5.67,6.43,10.14,7.53,4.47,1.1,7.5-2.06,12.43-2.03,4.93-.03,7.96,3.12,12.43,2.03,4.47-1.1,5.68-5.3,10.14-7.53,4.28-2.36,8.44-.96,11.88-4.01,3.44-3.05,2.56-7.34,5.41-11.3,2.76-4.14,7.08-4.84,8.71-9.13,1.63-4.3-1.14-7.69-.49-12.59.53-4.89,4.04-7.51,3.49-12.07-.55-4.56-4.58-6.27-6.28-10.9-1.81-4.59.08-8.54-2.53-12.32-2.61-3.77-6.97-3.42-10.67-6.71-3.69-3.24-3.86-7.62-7.93-9.75-4.08-2.13-7.77.21-12.52-1.04-4.84-1.11-7.02-4.9-11.62-4.9Z"/>
</svg>