<?xml version="1.0" encoding="UTF-8"?>
<svg id="a" data-name="shapes" xmlns="http://www.w3.org/2000/svg" width="108" height="108" viewBox="0 0 108 108">
  <rect id="b" data-name="edge_box" width="108" height="108" fill="none"/>
  <circle id="c" data-name="scaling_circle" cx="54" cy="54" r="52" fill="none"/>
  <path id="d" data-name="photos_scallop" d="M55.82,106c-3.92.13-5.71-2.94-9.71-3.54-3.99-.7-6.66,1.64-10.33.27-3.67-1.37-4.14-4.89-7.61-6.98-3.42-2.17-6.79-1.03-9.65-3.7-2.87-2.67-1.96-6.11-4.36-9.37-2.33-3.31-5.88-3.54-7.5-7.1-1.63-3.57.53-6.4-.45-10.33-.88-3.95-4.07-5.52-4.2-9.43-.14-3.92,2.93-5.71,3.53-9.71.7-3.99-1.64-6.66-.27-10.33,1.37-3.67,4.89-4.14,6.98-7.61,2.18-3.42,1.03-6.79,3.7-9.65,2.67-2.87,6.11-1.96,9.37-4.36,3.31-2.33,3.54-5.88,7.11-7.5,3.56-1.63,6.39.53,10.32-.45,3.95-.88,5.52-4.07,9.43-4.2,3.92-.14,5.71,2.93,9.71,3.53,3.99.7,6.66-1.64,10.33-.27,3.67,1.37,4.14,4.89,7.62,6.98,3.41,2.18,6.78,1.03,9.64,3.7,2.87,2.67,1.96,6.11,4.37,9.37,2.32,3.31,5.87,3.54,7.49,7.11,1.63,3.56-.53,6.39.45,10.32.88,3.95,4.07,5.52,4.21,9.43.13,3.92-2.94,5.71-3.54,9.71-.7,3.99,1.64,6.66.27,10.33-1.37,3.67-4.89,4.14-6.98,7.62-2.17,3.41-1.03,6.78-3.7,9.64-2.67,2.87-6.11,1.96-9.37,4.37-3.31,2.32-3.54,5.87-7.1,7.49-3.57,1.63-6.4-.53-10.33.45-3.95.88-5.52,4.07-9.43,4.21Z"/>
</svg>