<?xml version="1.0" encoding="UTF-8"?>
<svg id="a" data-name="shapes" xmlns="http://www.w3.org/2000/svg" width="108" height="108" viewBox="0 0 108 108">
  <rect id="b" data-name="edge_box" width="108" height="108" fill="none"/>
  <circle id="c" data-name="scaling_circle" cx="54" cy="54" r="52" fill="none"/>
  <path id="d" data-name="weather_scallop" d="M102.94,60.09c1.35,3.04,1.62,6.57.51,9.98-1.14,3.51-3.54,6.26-6.53,7.92-.03.02-.06.04-.09.05-1.66.96-3.15,2.27-4.35,3.92-1.17,1.6-1.94,3.37-2.35,5.19-.02.12-.05.24-.07.36-.67,3.32-2.54,6.41-5.5,8.56-2.93,2.13-6.41,2.96-9.75,2.59-.07,0-.13-.02-.19-.03-1.94-.22-3.95-.04-5.92.6-2.04.66-3.81,1.74-5.27,3.12-.01,0-.02.01-.02.01-2.49,2.26-5.79,3.64-9.41,3.64s-6.92-1.38-9.41-3.64c0,0-.01-.01-.02-.01-1.46-1.38-3.23-2.46-5.27-3.12-1.97-.64-3.98-.82-5.92-.6-.06.01-.12.02-.19.03-3.34.37-6.82-.46-9.75-2.59-2.96-2.15-4.83-5.24-5.5-8.56-.03-.12-.05-.24-.07-.36-.41-1.82-1.18-3.59-2.35-5.19-1.2-1.65-2.69-2.96-4.35-3.92-.03,0-.06-.03-.09-.05-2.99-1.66-5.39-4.41-6.53-7.92-1.11-3.41-.84-6.94.51-9.98.03-.09.07-.17.11-.25.82-1.78,1.28-3.76,1.28-5.84s-.46-4.06-1.28-5.84c-.03-.09-.07-.17-.11-.25-1.35-3.04-1.62-6.57-.51-9.98,1.14-3.51,3.54-6.26,6.53-7.92.03-.02.06-.04.09-.05,1.66-.96,3.15-2.27,4.35-3.92,1.17-1.6,1.94-3.37,2.35-5.19.02-.12.05-.24.07-.36.67-3.32,2.54-6.41,5.5-8.56,2.93-2.13,6.41-2.96,9.75-2.59.07,0,.13.02.19.03,1.94.22,3.95.04,5.92-.6,2.04-.66,3.81-1.74,5.27-3.12.01,0,.02-.01.02-.01,2.49-2.26,5.79-3.64,9.41-3.64s6.92,1.38,9.41,3.64c0,0,.01.01.02.01,1.46,1.38,3.23,2.46,5.27,3.12,1.97.64,3.98.82,5.92.6.06-.01.12-.02.19-.03,3.34-.37,6.82.46,9.75,2.59,2.96,2.15,4.83,5.24,5.5,8.56.03.12.05.24.07.36.41,1.82,1.18,3.59,2.35,5.19,1.2,1.65,2.69,2.96,4.35,3.92.03,0,.06.03.09.05,2.99,1.66,5.39,4.41,6.53,7.92,1.11,3.41.84,6.94-.51,9.98-.03.09-.07.17-.11.25-.82,1.78-1.28,3.76-1.28,5.84s.46,4.06,1.28,5.84c.03.09.07.17.11.25Z"/>
</svg>