<?xml version="1.0" encoding="UTF-8"?>
<svg id="a" data-name="shapes" xmlns="http://www.w3.org/2000/svg" width="108" height="108" viewBox="0 0 108 108">
  <rect id="b" data-name="edge_box" width="108" height="108" fill="none"/>
  <circle id="c" data-name="scaling_circle" cx="54" cy="54" r="52" fill="none"/>
  <path id="d" data-name="android_scallop" d="M54,2c-2.98,0-10.35,4.47-12.58,5.03-2.22.64-10.84.44-13.42,1.94-2.58,1.49-6.72,9.04-8.38,10.65-1.61,1.66-9.16,5.8-10.65,8.38-1.5,2.58-1.3,11.2-1.94,13.42-.56,2.23-5.03,9.6-5.03,12.58s4.47,10.35,5.03,12.58c.64,2.22.44,10.84,1.94,13.42,1.49,2.58,9.04,6.72,10.65,8.38,1.66,1.6,5.8,9.16,8.38,10.65s11.2,1.3,13.42,1.94c2.23.56,9.6,5.03,12.58,5.03s10.35-4.47,12.58-5.03c2.22-.64,10.84-.45,13.42-1.94s6.72-9.05,8.38-10.65c1.6-1.66,9.16-5.8,10.65-8.38s1.3-11.2,1.94-13.42c.56-2.23,5.03-9.6,5.03-12.58s-4.47-10.35-5.03-12.58c-.64-2.22-.45-10.84-1.94-13.42s-9.05-6.72-10.65-8.38c-1.66-1.61-5.8-9.16-8.38-10.65-2.58-1.5-11.2-1.3-13.42-1.94-2.23-.56-9.6-5.03-12.58-5.03Z"/>
</svg>